# xmcd
#
# Track frame offsets:
#	150
#	19936
#	41642
#	63630
#	80603
#	98944
#	115381
#	135143
#	156824
#	178799
#	195757
#	214100
#
# Disc length: 3073 seconds
#
# Revision: 1
# Processed by: cddbd v1.5.2PL0 Copyright (c) Steve Scherf et al.
# Submitted via: audiograbber 1.83.01
#
DISCID=9e0bff0c
DTITLE=Various Artist - CB20310
DYEAR=1900
DGENRE=Country
TTITLE0=Martina McBride - Blessed (Vocal)
TTITLE1=Mindy McCready - I Don't Want You To Go (Vocal)
TTITLE2=Dixie Chicks - Travelin' Soldier (Vocal)
TTITLE3=Loretta Lynn - Table For Two (Vocal)
TTITLE4=Nitty Gritty Dirt Band - Singing To The Scarecrow (Vocal)
TTITLE5=Hillsong - Inside Out (Vocal)
TTITLE6=Martina McBride - Blessed
TTITLE7=Mindy McCready - I Don't Want You To Go 
TTITLE8=Dixie Chicks - Travelin' Soldier
TTITLE9=Loretta Lynn - Table For Two 
TTITLE10=Nitty Gritty Dirt Band - Singing To The Scarecrow 
TTITLE11=Hillsong - Inside Out 
EXTD=
EXTT0=
EXTT1=
EXTT2=
EXTT3=
EXTT4=
EXTT5=
EXTT6=
EXTT7=
EXTT8=
EXTT9=
EXTT10=
EXTT11=
PLAYORDER=
